<svg width="25" height="27" viewBox="0 0 25 27" fill="none" xmlns="http://www.w3.org/2000/svg">
<path d="M18.0205 13.5C14.3247 13.5 11.3273 16.5229 11.3273 20.25C11.3273 23.9771 14.3247 27 18.0205 27C21.7163 27 24.7138 23.9771 24.7138 20.25C24.7138 16.5229 21.7163 13.5 18.0205 13.5ZM18.5783 23.0333V23.625H18.0205V23.0636C17.4427 23.0535 16.8459 22.9151 16.3472 22.6553L16.6016 21.7305C17.1348 21.9398 17.8443 22.1614 18.3998 22.0343C19.0401 21.888 19.1718 21.2231 18.4634 20.9036C17.9447 20.6595 16.3561 20.4514 16.3561 19.0789C16.3561 18.3127 16.9362 17.6254 18.0205 17.4757V16.875H18.5783V17.4476C18.9821 17.4589 19.435 17.5297 19.9404 17.6839L19.7385 18.6109C19.3101 18.459 18.8371 18.3218 18.3753 18.3499C17.5453 18.3983 17.4717 19.1239 18.0518 19.4276C19.0067 19.8799 20.2516 20.2151 20.2516 21.4222C20.2527 22.3875 19.502 22.9016 18.5783 23.0333ZM20.3899 11.5819C21.6527 11.331 22.8017 10.8776 23.5982 10.2352V10.9688C23.5982 11.5301 23.1676 12.0431 22.4749 12.4628C21.8267 12.0836 21.1273 11.7878 20.3899 11.5819ZM18.0205 5.0625C21.0024 5.0625 23.5982 3.92963 23.5982 2.53125C23.5982 1.13287 21.0024 0 18.0205 0C15.0398 0 12.4428 1.13287 12.4428 2.53125C12.4428 3.92963 15.0398 5.0625 18.0205 5.0625ZM18.1243 2.80237C17.7907 2.70112 16.77 2.61562 16.77 2.043C16.77 1.7235 17.1426 1.43888 17.8387 1.37587V1.125H18.1968V1.36238C18.4578 1.368 18.7479 1.39612 19.0714 1.46362L18.942 1.84837C18.6954 1.791 18.421 1.737 18.1522 1.737L18.0718 1.73812C17.5341 1.76063 17.4906 2.061 17.8621 2.187C18.4723 2.37713 19.2755 2.5155 19.2755 3.0195C19.2755 3.42112 18.7914 3.636 18.1968 3.69V3.9375H17.8387V3.7035C17.4728 3.70012 17.0846 3.6405 16.7655 3.5325L16.9295 3.14663C17.2017 3.2175 17.5453 3.28838 17.8532 3.28838L18.0852 3.27262C18.4969 3.213 18.5794 2.93512 18.1243 2.80237ZM5.74958 17.4375C7.36153 17.4375 8.8452 17.0989 9.88265 16.5735C10.2296 15.7973 10.6791 15.0784 11.2191 14.4371C10.716 13.2638 8.38671 12.375 5.74958 12.375C2.76885 12.375 0.171875 13.5079 0.171875 14.9062C0.171875 16.3046 2.76885 17.4375 5.74958 17.4375ZM5.85332 15.1774C5.51977 15.0761 4.49906 14.9906 4.49906 14.418C4.49906 14.0985 4.87276 13.8139 5.56774 13.7509V13.5H5.92583V13.7374C6.18687 13.743 6.47691 13.7711 6.80042 13.8386L6.6699 14.2234C6.42448 14.166 6.15006 14.112 5.88121 14.112L5.80089 14.1131C5.2632 14.1356 5.22081 14.436 5.59117 14.562C6.20137 14.7521 7.00456 14.8905 7.00456 15.3945C7.00456 15.7961 6.52041 16.011 5.92583 16.065V16.3125H5.56774V16.0785C5.20073 16.0751 4.81364 16.0155 4.49459 15.9075L4.65858 15.5216C4.93077 15.5925 5.27436 15.6634 5.58225 15.6634L5.81428 15.6476C6.2248 15.588 6.30846 15.3101 5.85332 15.1774ZM10.3188 24.7747C9.29365 25.4385 7.59691 25.875 5.74958 25.875C2.76885 25.875 0.171875 24.7421 0.171875 23.3438V22.6102C1.45028 23.643 3.64009 24.1875 5.74958 24.1875C7.12838 24.1875 8.53731 23.9501 9.70863 23.5001C9.87931 23.9434 10.0835 24.3697 10.3188 24.7747ZM0.171875 20.5312V19.7989C1.45028 20.8305 3.64009 21.375 5.74958 21.375C6.90862 21.375 8.08552 21.2051 9.12743 20.8856C9.16424 21.4132 9.2468 21.9274 9.37062 22.4269C8.38002 22.8172 7.11277 23.0625 5.74958 23.0625C2.76885 23.0625 0.171875 21.9296 0.171875 20.5312ZM0.171875 17.7188V16.9852C1.45028 18.018 3.64009 18.5625 5.74958 18.5625C7.00679 18.5625 8.28743 18.3645 9.39293 17.9899C9.25014 18.5445 9.15867 19.1171 9.12409 19.7066C8.17141 20.0419 7.00121 20.25 5.74958 20.25C2.76885 20.25 0.171875 19.1171 0.171875 17.7188ZM12.4428 5.34375V4.61025C13.7212 5.643 15.911 6.1875 18.0205 6.1875C20.1311 6.1875 22.3198 5.643 23.5982 4.61025V5.34375C23.5982 6.74213 21.0024 7.875 18.0205 7.875C15.0398 7.875 12.4428 6.74213 12.4428 5.34375ZM12.4428 10.9688V10.2352C13.2382 10.8776 14.3883 11.331 15.6511 11.5819C14.9137 11.7878 14.2154 12.0836 13.5673 12.4628C12.8734 12.0431 12.4428 11.5301 12.4428 10.9688ZM12.4428 8.15625V7.42387C13.7212 8.4555 15.911 9 18.0205 9C20.1311 9 22.3198 8.4555 23.5982 7.42387V8.15625C23.5982 9.55462 21.0024 10.6875 18.0205 10.6875C15.0398 10.6875 12.4428 9.55462 12.4428 8.15625Z" fill="#00FF8C"/>
</svg>
