<svg width="25" height="27" viewBox="0 0 25 27" fill="none" xmlns="http://www.w3.org/2000/svg">
<path d="M16.889 7.22L15.9074 7.62C15.7012 7.46 15.4852 7.33 15.2496 7.23L15.1024 6.17C15.0828 6.07 15.0042 6 14.9061 6H13.3354C13.2372 6 13.1587 6.07 13.1489 6.17L13.0016 7.23C12.766 7.33 12.5402 7.46 12.3439 7.62L11.3622 7.22C11.2739 7.19 11.1659 7.22 11.1266 7.31L10.3413 8.69C10.2922 8.78 10.3118 8.89 10.3903 8.95L11.2248 9.61C11.1953 9.73 11.1757 9.87 11.1757 10C11.1757 10.13 11.1855 10.26 11.2051 10.39L10.3805 11.05C10.302 11.11 10.2824 11.22 10.3314 11.3L11.1168 12.69C11.1659 12.78 11.264 12.81 11.3622 12.78L12.3341 12.38C12.5402 12.54 12.7562 12.67 13.0016 12.77L13.139 13.83C13.1587 13.93 13.2372 14 13.3354 14H14.9061C15.0042 14 15.0828 13.93 15.1024 13.83L15.2496 12.77C15.4852 12.67 15.711 12.54 15.9074 12.38L16.8792 12.78C16.9676 12.82 17.0756 12.78 17.1148 12.69L17.9002 11.3C17.9492 11.21 17.9296 11.11 17.8511 11.05L17.0363 10.39C17.0559 10.26 17.0657 10.13 17.0657 10C17.0657 9.86 17.0559 9.73 17.0363 9.61L17.8707 8.95C17.9492 8.89 17.9689 8.78 17.9198 8.69L17.1345 7.31C17.0854 7.22 16.9774 7.19 16.889 7.22ZM14.1207 11.43C13.3452 11.43 12.7169 10.79 12.7169 10C12.7169 9.21 13.3452 8.57 14.1207 8.57C14.8962 8.57 15.5245 9.21 15.5245 10C15.5245 10.79 14.8962 11.43 14.1207 11.43Z" fill="white"/>
<path d="M23.96 9.09C23.3269 4.185 19.2038 0.3 14.3445 0.015C14.1383 -1.39698e-08 13.9469 0 13.7407 0C8.54275 0 4.27244 3.915 3.5509 9L0.708935 14.22C0.105201 15.21 0.812011 16.5 1.96058 16.5H3.4331V19.5C3.4331 21.15 4.75837 22.5 6.37814 22.5H7.85066V27H18.1583V19.98C22.0163 18.105 24.5638 13.86 23.96 9.09ZM16.5238 17.445L15.2133 18.075V24H10.7957V19.5H6.37814V13.5H4.46386L6.42232 10.005C6.68737 6.09 9.83857 3 13.7407 3C17.8049 3 21.1034 6.36 21.1034 10.5C21.1034 13.635 19.2038 16.32 16.5238 17.445Z" fill="#FEF9F9"/>
</svg>
