
<svg width="25" height="23" viewBox="0 0 25 23" fill="none" xmlns="http://www.w3.org/2000/svg">
<path d="M17.0299 4.17535C18.1618 4.17535 19.0793 3.24067 19.0793 2.08768C19.0793 0.934685 18.1618 0 17.0299 0C15.898 0 14.9805 0.934685 14.9805 2.08768C14.9805 3.24067 15.898 4.17535 17.0299 4.17535Z" fill="#FF530A"/>
<path d="M24.714 12.0046V7.09856L19.5392 4.86474C18.5452 4.43676 17.3975 4.8021 16.8237 5.74156L15.799 7.41171C15.1124 8.64345 13.8418 9.56203 12.3047 9.83343L12.3662 9.89606C13.0732 10.6163 13.9237 11.013 14.887 11.1174C15.7067 10.6789 16.4445 10.0944 17.0286 9.40545L17.6434 12.537L16.4548 13.6852L15.4915 14.6142V15.4076V22.4431H17.541V16.18L19.6929 14.0923L21.5374 22.4431H23.6893L21.4554 10.9608L20.8201 7.72487L22.6645 8.45556V12.0046H24.714Z" fill="#FF530A"/>
<path d="M10.6642 8.04738C10.8896 8.20396 11.1458 8.2979 11.402 8.35009C11.5352 8.37097 11.6581 8.39185 11.7913 8.39185C11.9246 8.39185 12.0578 8.38141 12.1807 8.35009C12.3139 8.32922 12.4369 8.28746 12.5599 8.23527C12.8058 8.13089 13.0415 7.98475 13.2362 7.77598C13.7383 7.2645 13.9228 6.55469 13.7998 5.89707C13.7281 5.51085 13.5436 5.12463 13.2362 4.82192C13.0415 4.62359 12.8058 4.46701 12.5599 4.36263C12.4369 4.31044 12.3139 4.26868 12.1807 4.24781C12.0475 4.22693 11.9246 4.20605 11.7913 4.20605C11.6684 4.20605 11.5557 4.21649 11.4327 4.23737C11.2892 4.25825 11.1458 4.3 11.0126 4.35219C10.7769 4.46701 10.5412 4.62359 10.3465 4.82192C10.0391 5.12463 9.85463 5.51085 9.7829 5.89707C9.65994 6.55469 9.84438 7.2645 10.3465 7.77598C10.4387 7.88037 10.5514 7.96387 10.6642 8.04738Z" fill="#FF530A"/>
<path d="M11.6384 10.6257L9.58899 8.53805C9.48652 8.43366 9.38405 8.35015 9.27133 8.26665C9.04589 8.12051 8.78971 8.01612 8.53353 7.97437C8.40032 7.94306 8.27736 7.93262 8.14414 7.93262C7.62154 7.93262 7.09894 8.14138 6.6993 8.54848L3.27676 12.0349C2.85662 12.4629 2.64143 13.0579 2.68242 13.6424C2.68242 13.8303 2.72341 14.0286 2.79514 14.2165L3.89158 17.2959L0.171875 21.085L1.61672 22.5673L5.9615 18.1414V15.8241L7.29363 17.0871V22.442H9.34306V16.179L7.17066 13.966L9.58899 11.5026L10.3165 12.2437C11.6384 13.5589 13.3599 14.3731 15.4708 14.3731L15.3274 12.2124C13.7903 12.1915 12.5607 11.5652 11.6384 10.6257Z" fill="#FF530A"/>
</svg>
